<?xml version="1.0" encoding="UTF-8"?>
<svg id="Ebene_2" data-name="Ebene 2" xmlns="http://www.w3.org/2000/svg" viewBox="0 0 88.59 78.12">
  <defs>
    <style>
      .cls-1 {
        fill: #fff;
      }
    </style>
  </defs>
  <g id="Ebene_1-2" data-name="Ebene 1">
    <g>
      <path class="cls-1" d="M37.81,76.23c-5.66-1.8-10.83-3.9-15.88-6.67-1.91-1.05-3.45-2.37-4.98-3.87l-4-3.93c-1.54-1.51-3.15-2.1-5.18-2.69-2.61-.75-5.08-2.6-6.78-4.7-2.44-3.03.47-9.12.12-12.56l-.77-7.51c-.4-3.86,1.86-7.44,4.91-9.86,2.56-2.03,4.41-4.26,6.08-7.05,2.74-4.56,6.43-8.17,10.99-10.89,4.28-2.55,8.74-4.4,13.54-5.79,4.54-1.31,9.12-.77,13.45,1.05,2.22.93,4.43,1.66,6.9,1.63,7.12-.08,9.8,4.76,13.79,6.97,2.06,1.14,3.99,2.32,5.47,4.22,1.39,1.8,3,3.18,4.71,4.69,4.28,3.79,7.09,13.91,8.06,19.99.87,5.46.05,10.75-1.59,15.95-1.79,5.69-4.94,10.56-9.67,14.24-7.01,5.45-15.51,8.47-24.44,8.64-5.05.1-9.84-.32-14.72-1.87ZM25.65,70.59c10.25,4.67,17.73,7.34,29.13,6.61,6.54-.42,12.49-2.58,18.06-5.87,6.84-4.04,11.52-10.27,13.49-17.98,1.07-4.17,1.91-8.31,1.29-12.67-.86-6.12-3.75-16.93-7.9-20.66-1.74-1.57-3.45-2.97-4.87-4.83-1.3-1.7-2.95-2.8-4.8-3.79-4.37-2.34-7.16-7.28-13.86-7.2-2.11.02-4.04-.37-6-1.17C43.03.08,39.55.07,32.29,2.76c-9,3.32-15.55,7.3-20.6,15.6-1.62,2.67-3.45,4.72-5.89,6.67-2.61,2.09-4.47,5.12-4.69,8.5-.2,3,1.33,6.66.55,11.35-.68,4.07-1.9,7.66.95,10.11,1.53,1.32,3.27,2.74,5.25,3.3s3.58.98,5.06,2.37c1.26,1.18,2.57,2.33,3.76,3.62,2.54,2.74,5.44,4.7,8.97,6.31Z"/>
      <path class="cls-1" d="M57.62,30.05c-2.61,3.76-6.89,5.6-11.38,5.72-4.78.13-8.96-2.7-10.76-6.8-2-4.53-.82-9.71,2.85-12.98,4.81-4.28,12.03-4.66,17.11-.79,4.72,3.6,5.62,9.9,2.18,14.85ZM52.95,19.27c3.11,1.56,4.68,4.18,5.27,7.68,1.76-3.92.16-8.45-3.19-11.05-5.54-4.3-13.77-3.09-17.82,2.6-2.09,2.94-2.63,6.62-1.01,9.77.16-4.34,2.46-7.66,6.28-9.33,3.31-1.35,7.15-1.34,10.47.32ZM56.45,30.11c1.79-2.88.58-6.67-1.95-8.82-4.38-3.7-10.93-3.37-14.98.67-2.67,2.67-3.41,7.09-.79,10.02,4.81,5.38,14.86,2.73,17.72-1.88Z"/>
      <path class="cls-1" d="M62.28,21.08c-2.61-9.16-13.07-13.51-22.03-10.08-4.42,1.69-7.16,4.95-9.35,9.26.97-4.69,4.93-8.12,9.28-9.83,6.98-2.73,14.84-.73,19.74,4.86,1.36,1.55,3.09,5.18,2.73,5.73-.07.11-.31.25-.37.05Z"/>
      <path class="cls-1" d="M47,29.74c-1.32-.14-2.01-1.21-1.82-2.26s1.28-1.74,2.4-1.51,1.77,1.05,1.69,2.02c-.08,1.03-.97,1.89-2.27,1.76Z"/>
    </g>
  </g>
</svg>