<?xml version="1.0" encoding="UTF-8"?>
<svg id="Ebene_2" data-name="Ebene 2" xmlns="http://www.w3.org/2000/svg" viewBox="0 0 107.02 69.54">
  <defs>
    <style>
      .cls-1 {
        fill: #1bad4c;
      }
    </style>
  </defs>
  <g id="Ebene_1-2" data-name="Ebene 1">
    <g>
      <circle class="cls-1" cx="66.99" cy="2.3" r="2.3"/>
      <g>
        <circle class="cls-1" cx="61.58" cy="7.71" r="2.3"/>
        <circle class="cls-1" cx="56.17" cy="7.71" r="2.3"/>
      </g>
      <circle class="cls-1" cx="66.99" cy="7.71" r="2.3"/>
      <circle class="cls-1" cx="72.4" cy="7.71" r="2.3"/>
      <circle class="cls-1" cx="61.58" cy="13.12" r="2.3"/>
      <circle class="cls-1" cx="66.99" cy="13.12" r="2.3"/>
      <circle class="cls-1" cx="72.4" cy="13.12" r="2.3"/>
      <circle class="cls-1" cx="77.81" cy="13.12" r="2.3"/>
      <circle class="cls-1" cx="66.99" cy="18.54" r="2.3"/>
      <circle class="cls-1" cx="72.4" cy="18.54" r="2.3"/>
      <circle class="cls-1" cx="77.81" cy="18.54" r="2.3"/>
      <circle class="cls-1" cx="72.4" cy="23.95" r="2.3"/>
      <circle class="cls-1" cx="77.81" cy="23.95" r="2.3"/>
      <circle class="cls-1" cx="83.22" cy="23.95" r="2.3"/>
      <circle class="cls-1" cx="88.63" cy="23.95" r="2.3"/>
      <circle class="cls-1" cx="23.71" cy="29.36" r="2.3"/>
      <circle class="cls-1" cx="29.12" cy="29.36" r="2.3"/>
      <circle class="cls-1" cx="34.53" cy="29.36" r="2.3"/>
      <circle class="cls-1" cx="39.94" cy="29.36" r="2.3"/>
      <circle class="cls-1" cx="45.35" cy="29.36" r="2.3"/>
      <circle class="cls-1" cx="50.76" cy="29.36" r="2.3"/>
      <circle class="cls-1" cx="56.17" cy="29.36" r="2.3"/>
      <circle class="cls-1" cx="61.58" cy="29.36" r="2.3"/>
      <circle class="cls-1" cx="66.99" cy="29.36" r="2.3"/>
      <circle class="cls-1" cx="72.4" cy="29.36" r="2.3"/>
      <circle class="cls-1" cx="77.81" cy="29.36" r="2.3"/>
      <circle class="cls-1" cx="83.22" cy="29.36" r="2.3"/>
      <circle class="cls-1" cx="88.63" cy="29.36" r="2.3"/>
      <circle class="cls-1" cx="94.05" cy="29.36" r="2.3"/>
      <circle class="cls-1" cx="23.71" cy="34.77" r="2.3"/>
      <circle class="cls-1" cx="29.12" cy="34.77" r="2.3"/>
      <circle class="cls-1" cx="34.53" cy="34.77" r="2.3"/>
      <circle class="cls-1" cx="39.94" cy="34.77" r="2.3"/>
      <circle class="cls-1" cx="45.35" cy="34.77" r="2.3"/>
      <circle class="cls-1" cx="50.76" cy="34.77" r="2.3"/>
      <circle class="cls-1" cx="56.17" cy="34.77" r="2.3"/>
      <circle class="cls-1" cx="61.58" cy="34.77" r="2.3"/>
      <circle class="cls-1" cx="66.99" cy="34.77" r="2.3"/>
      <circle class="cls-1" cx="72.4" cy="34.77" r="2.3"/>
      <circle class="cls-1" cx="77.81" cy="34.77" r="2.3"/>
      <circle class="cls-1" cx="83.22" cy="34.77" r="2.3"/>
      <circle class="cls-1" cx="88.63" cy="34.77" r="2.3"/>
      <circle class="cls-1" cx="94.05" cy="34.77" r="2.3"/>
      <circle class="cls-1" cx="99.46" cy="34.77" r="2.3"/>
      <circle class="cls-1" cx="23.71" cy="40.18" r="2.3"/>
      <circle class="cls-1" cx="29.12" cy="40.18" r="2.3"/>
      <circle class="cls-1" cx="34.53" cy="40.18" r="2.3"/>
      <circle class="cls-1" cx="39.94" cy="40.18" r="2.3"/>
      <circle class="cls-1" cx="45.35" cy="40.18" r="2.3"/>
      <circle class="cls-1" cx="50.76" cy="40.18" r="2.3"/>
      <circle class="cls-1" cx="56.17" cy="40.18" r="2.3"/>
      <circle class="cls-1" cx="61.58" cy="40.18" r="2.3"/>
      <circle class="cls-1" cx="66.99" cy="40.18" r="2.3"/>
      <circle class="cls-1" cx="72.4" cy="40.18" r="2.3"/>
      <circle class="cls-1" cx="77.81" cy="40.18" r="2.3"/>
      <circle class="cls-1" cx="83.22" cy="40.18" r="2.3"/>
      <circle class="cls-1" cx="88.63" cy="40.18" r="2.3"/>
      <circle class="cls-1" cx="94.05" cy="40.18" r="2.3"/>
      <circle class="cls-1" cx="72.4" cy="45.59" r="2.3"/>
      <circle class="cls-1" cx="77.81" cy="45.59" r="2.3"/>
      <circle class="cls-1" cx="83.22" cy="45.59" r="2.3"/>
      <circle class="cls-1" cx="88.63" cy="45.59" r="2.3"/>
      <circle class="cls-1" cx="66.99" cy="51" r="2.3"/>
      <circle class="cls-1" cx="72.4" cy="51" r="2.3"/>
      <circle class="cls-1" cx="77.81" cy="51" r="2.3"/>
      <circle class="cls-1" cx="61.58" cy="56.41" r="2.3"/>
      <circle class="cls-1" cx="66.99" cy="56.41" r="2.3"/>
      <circle class="cls-1" cx="72.4" cy="56.41" r="2.3"/>
      <circle class="cls-1" cx="77.81" cy="56.41" r="2.3"/>
      <circle class="cls-1" cx="61.58" cy="61.82" r="2.3"/>
      <circle class="cls-1" cx="66.99" cy="61.82" r="2.3"/>
      <circle class="cls-1" cx="72.4" cy="61.82" r="2.3"/>
      <circle class="cls-1" cx="66.99" cy="67.23" r="2.3"/>
      <circle class="cls-1" cx="2.3" cy="29.36" r="2.3"/>
      <circle class="cls-1" cx="7.71" cy="29.36" r="2.3"/>
      <circle class="cls-1" cx="13.12" cy="29.36" r="2.3"/>
      <circle class="cls-1" cx="18.54" cy="29.36" r="2.3"/>
      <circle class="cls-1" cx="2.3" cy="34.77" r="2.3"/>
      <circle class="cls-1" cx="7.71" cy="34.77" r="2.3"/>
      <circle class="cls-1" cx="13.12" cy="34.77" r="2.3"/>
      <circle class="cls-1" cx="18.54" cy="34.77" r="2.3"/>
      <circle class="cls-1" cx="2.3" cy="40.18" r="2.3"/>
      <circle class="cls-1" cx="7.71" cy="40.18" r="2.3"/>
      <circle class="cls-1" cx="13.12" cy="40.18" r="2.3"/>
      <circle class="cls-1" cx="18.54" cy="40.18" r="2.3"/>
      <circle class="cls-1" cx="56.17" cy="61.82" r="2.3"/>
      <circle class="cls-1" cx="72.4" cy="67.23" r="2.3"/>
      <circle class="cls-1" cx="72.4" cy="2.3" r="2.3"/>
      <circle class="cls-1" cx="99.46" cy="40.18" r="2.3"/>
      <circle class="cls-1" cx="99.46" cy="29.36" r="2.3"/>
      <circle class="cls-1" cx="104.72" cy="34.77" r="2.3"/>
    </g>
  </g>
</svg>