<?xml version="1.0" encoding="UTF-8"?>
<svg id="Ebene_2" data-name="Ebene 2" xmlns="http://www.w3.org/2000/svg" viewBox="0 0 100.59 74.9">
  <defs>
    <style>
      .cls-1 {
        fill: #fff;
        stroke: #fff;
        stroke-miterlimit: 10;
        stroke-width: .5px;
      }
    </style>
  </defs>
  <g id="Ebene_1-2" data-name="Ebene 1">
    <path class="cls-1" d="M57.39,74.64h-13.84s-2.97-.13-2.97-.13l-1.84-.07-1.88-.13-1.53-.12-1.63-.13c-2.96-.24-5.84-.6-8.74-1.28-1.81-.42-4.34-1.15-4.39-2.94l-.06-2.08c-.37-4.21-.91-7.78-2.92-11.6-.97-1.84-2.22-3.43-4-4.57l-1.97-.1c-2.69-.29-5.33-.49-7.96-1.11-1.12-.26-2.08-.73-2.78-1.6s-.84-2.07-.24-3.11c.55-.96,2.11-1.66,3.13-2.29,1.41-.87,2.72-1.89,3.88-3.06l1.48-1.49,1.9-2.35c1.04-1.52,1.98-2.99,2.81-4.64,1.56-3.09,2.7-6.2,3.54-9.57.91-3.66,1.56-7.27,1.82-11.03l.14-2.09.1-1.44.08-3.71c.04-1.96,2.81-2.35,4.88-2.58l3.59-.4,1.3-.11,1.54-.12,1.88-.13c.65-.04,1.26-.09,1.9-.11l2.21-.07,3.52-.12,5.91-.11h8.39s5.91.11,5.91.11l3.52.12,2.21.07c.64.02,1.25.07,1.9.11l1.88.13,1.54.12,1.3.12c.47.04.92.06,1.39.13,2,.28,6.37.55,6.58,2.22l.15,1.18.07,3.28.1,1.43.13,1.99c.26,3.91.95,7.68,1.95,11.48,1.37,5.22,3.39,9.8,6.52,14.16l1.62,1.92,1.76,1.78c1.14,1.15,2.43,2.12,3.82,2.91l1.68.95c1.41.79,2.17,2.56,1.28,4.04-.58.97-1.66,1.57-2.74,1.85-2.18.57-4.32.82-6.55,1.02l-3.77.34c-1.78,1.14-3.03,2.7-3.99,4.54-1.84,3.52-2.53,7.15-2.88,11.06l-.09,2.25c-.03.8-.23,1.38-.88,1.88-.59.46-1.21.77-1.96.99-2.14.63-4.29,1.02-6.52,1.27l-3.6.39-1.41.12-1.54.12-1.88.13-1.82.09-2.95.12ZM57.41,52.54l7.88-.11,4.84-.11,3.66-.11,3.17-.13,2.5-.11,1.84-.08c.72-.03,1.4-.09,2.12-.13l1.54-.1,6.18-.53c2.02-.17,3.96-.44,5.93-.93l1.48-.54c1.03-.37,1.65-1.58,1.6-2.64s-.61-1.82-1.49-2.33c-2.11-1.21-4.02-2.57-5.82-4.23-1.59-1.46-2.84-3.11-4.11-4.84-1.13-1.54-1.95-3.16-2.79-4.9-2.63-5.44-4.24-12.84-4.73-18.86l-.12-1.53c-.05-.6-.1-1.17-.12-1.77l-.09-2.18-.11-2.96c-.13-.76-.88-1.02-1.52-1.21-1.84-.53-3.65-.76-5.55-.93l-1.5-.13-1.42-.12-1.54-.12c-.73-.06-1.4-.1-2.12-.13l-1.84-.07-2.95-.11-4.16-.13h-15.33s-4.27.13-4.27.13l-2.95.11-1.84.07c-.68.03-1.32.07-2.01.12l-1.77.12-1.42.12-1.39.13c-2,.19-7.37.68-7.43,2.13l-.1,2.73c-.15.77.02,1.53-.09,2.3-.08.56-.07,1.09-.12,1.66l-.14,1.74c-.66,8.05-2.94,17.13-7.54,23.84-.94,1.37-1.96,2.57-3.09,3.77-1.64,1.77-3.52,3.18-5.56,4.47-.7.44-1.54.67-2.05,1.38-.25.35-.52.85-.59,1.26-.21,1.28.36,2.5,1.48,2.99.6.26,1.11.51,1.75.65,2.45.55,4.9.82,7.41,1.06l1.75.17,3.42.22,1.42.11c1.27.09,2.66.14,3.96.2l2.59.12,3.09.11,3.76.12,4.73.11,8.16.11h13.39ZM79.75,69.58l.1-1.61.08-1.36c.32-3.48,1.03-6.9,2.59-10.04l.84-1.43c.91-1.26,1.87-2.41,3.1-3.34-.75-.22-1.34.06-1.97.07-1.34.02-2.79.19-4.13.24l-2.07.08-2.73.11-3.4.12-4.14.11-5.93.13h-22.89s-5.93-.13-5.93-.13l-4.23-.12-3.33-.11-2.82-.12-2.39-.11-2.34-.13-1.79-.09c-.78-.04-1.49-.2-2.41-.16,1.27.93,2.24,2.02,3.15,3.31,2.09,2.98,3.38,8.35,3.54,11.92l.07,1.61.12,1.54c.05.65.66,1.17,1.2,1.48,2.37,1.32,8.12,1.96,11.2,2.25l1.39.13,1.42.12,1.89.12,1.78.11,2.19.08,3.91.12h9.32s3.9-.11,3.9-.11l2.08-.08,2-.13,1.54-.11,1.74-.14c2.85-.23,5.61-.55,8.41-1.13,1.45-.3,2.81-.65,4.07-1.37.65-.37.85-1.08.89-1.86Z"/>
  </g>
</svg>