<?xml version="1.0" encoding="UTF-8"?>
<svg id="Ebene_2" data-name="Ebene 2" xmlns="http://www.w3.org/2000/svg" viewBox="0 0 102.32 62.54">
  <defs>
    <style>
      .cls-1 {
        fill: #f2f2f2;
        stroke: #fff;
        stroke-miterlimit: 10;
        stroke-width: .5px;
      }
    </style>
  </defs>
  <g id="Ebene_1-2" data-name="Ebene 1">
    <g id="_11QOBI.tif" data-name="11QOBI.tif">
      <g>
        <path class="cls-1" d="M64.89,18.61c-1.91,1.78-4.56,2.45-7.25,2.36-3.22-.1-6.33-1.19-8.87-3.16l-1.73-1.49c-2.43-2.1-4.41-6.15-5.84-9.09l-1.16-2.4-1.18-2.24c-.47-.9-1.26-1.92-2.12-1.78-.97.16-1.87.04-2.83-.15-.82-.16-1.63-.17-2.43-.27-.66-.08-1.2-.03-1.87.04l-8.98.93c-2.51.26-4.88.76-7.28,1.53-2.1.67-4.13,1.31-6.29,1.74-2.08.41-3.97,1.07-5.76,2.21-.5.32-.79.55-.87,1.24-.17,1.48.46,4.35.9,6.15l7.6,30.82c.65,2.64,1.24,5.19,2.03,7.76.48,1.55,1.09,2.96,1.87,4.36.91,1.65,2.27,2.74,4.13,3.21,2.23.55,4.53.65,6.82.24l3.83-.69,4.84-.97,5.51-1.58c2.01-.57,3.92-1.21,5.73-2.22l2.29-1.28c2.17-1.22,3.21-3.61,3.35-6.09v-3.79c0-1.2-.24-3.41.78-4.1-.24.57-.59,1.07-.59,1.74v3.18c.01.86.07,1.62.02,2.48-.26,3.89-1.54,5.75-5,7.6l-1.83.97c-.92.49-1.84.84-2.85,1.13l-5.67,1.64c-2.23.65-4.41,1.09-6.7,1.47l-4.97.83c-1.76.29-5.34-.11-6.87-.9-1.72-.89-2.9-2.49-3.7-4.23-.74-1.59-1.26-3.16-1.69-4.87l-2.45-9.79-2.07-8.37-2.02-8.18L1.54,15.81c-.46-1.85-.91-3.61-1.17-5.49-.15-1.07-.23-2.85.25-3.2,1.41-1.04,3.02-1.82,4.74-2.23,2.55-.61,4.96-1.22,7.46-2.01,2.48-.79,4.89-1.37,7.48-1.65l8.24-.87,1.19-.1h2.23s3.99.5,3.99.5c.55.07,1.08-.72,2.52,1.03.36.43.65.85.9,1.36l1.72,3.43,2.04,4.08c.73,1.46,1.62,2.77,2.61,4.04.4.51.87.92,1.29,1.4.65.74,1.34,1.28,2.15,1.84,2.29,1.57,4.82,2.57,7.61,2.83,2.74.26,5.54-.3,7.71-2,.12-.09.26-.17.39-.16Z"/>
        <path class="cls-1" d="M99.27,7.1c-2.14-1.71-4.57-2.73-7.3-3.05l-5.19-.61-4.1-.4-1.38-.11-1.4-.11c-.59-.05-1.14,0-1.72-.11l-1.71-.03c-1.13-.21-3.27-.06-4.29.38-.83.36-1.34,1.21-1.47,2.16-.04.34-.18.79-.14,1.12.3,2.28-.37,4.32-1.27,6.39-.95,2.18-2.57,4.42-4.43,5.88,1.67-1.56,3.01-3.2,3.96-5.27.72-1.57,1.41-3.1,1.57-4.85l.05-2.97c.17-1.74,1.53-3,3.24-3.01l3.71-.02c.35,0,.7.16,1.08.09.27-.05,1.85.1,2.8.18l1.29.11,1.2.1,1.38.13,6.38.72c1.67.19,3.26.54,4.76,1.26,1.12.53,2.18,1.07,2.96,2.02Z"/>
        <path class="cls-1" d="M50.11,39.88c.09-.16.05-.29.31-.4.47-.19.98-.47,1.54-.47h2.06c2.78.36,5.36,1.53,7.52,3.31.79.65,1.38,1.49,1.98,2.3.5.68.77,1.43,1.05,2.19.25.69.29,1.34.33,2.07.04.63.15,1.2,0,1.84l-.05,1.58-.11,1.3-.11,1.3c-.19,2.28-.22,4.26,2.01,5.43,1.72.9,3.58,1.52,5.51,1.76.89.11,1.82-.27,2.26-.97,1.26-2.01,2.11-6.72,2.58-9.37.99-5.48,2.98-11.47,6.66-15.68l2.16-2.47,4.32-3.94,4.82-4.12c2.78-2.38,4.59-4.63,5.88-8.08s1.72-5.53-.3-8.85l-1.25-1.52c1.62,1.31,2.64,3.27,2.78,5.35.07,1.03.02,1.99-.33,2.92l-1.43,3.83c-.98,2.62-4.82,6.1-7.11,8.04l-1.69,1.42-2.07,1.79c-1.35,1.17-2.63,2.37-3.85,3.67l-1.15,1.21c1.62,2.19,3.43,4.01,5.17,6.01l4.52,5.19c1.98,2.63,3.21,5.88,3.34,9.17.05,1.42-.57,2.91-1.41,3.92-1.79,2.16-5.04,2.35-7.74,1.81-4.33-.86-8.6-1.58-12.98-1.9-.43,1.38-1.38,2.75-2.77,2.77-1.11.02-2.16-.34-3.23-.67-2.04-.63-4.86-1.79-4.86-4.06v-2.75s.1-1.3.1-1.3l.1-1.51.09-1.82c.1-2.17-.44-4.11-1.64-5.89-.54-.8-1.14-1.45-1.94-2.06-2.33-1.77-5.07-2.94-8.02-3.12-1.13-.07-2.16.17-3.05.77ZM90.03,61.5c1.54.18,3.13-.18,4.48-.8,1.98-.9,3.06-3.89,2.75-5.95-.45-3.05-1.52-5.81-3.34-8.28l-4.73-5.45c-1.65-1.9-3.34-3.61-4.86-5.64l-1.61,2.17c-2.12,2.87-3.51,6.12-4.5,9.56l-1.3,5.91c-.48,2.17-.84,4.29-1.54,6.42l1.52.1c4.03.36,7.94,1.06,11.91,1.84l1.22.14Z"/>
      </g>
    </g>
  </g>
</svg>