<?xml version="1.0" encoding="UTF-8"?>
<svg id="Ebene_2" data-name="Ebene 2" xmlns="http://www.w3.org/2000/svg" viewBox="0 0 82.46 108.63">
  <defs>
    <style>
      .cls-1 {
        fill: #fff;
      }
    </style>
  </defs>
  <g id="Ebene_1-2" data-name="Ebene 1">
    <path class="cls-1" d="M37.92,42.86c-.21.16-.43.32-.64.48-1.24,2.12-2.47,4.24-3.71,6.36v56.11c0,.52.29.94.04,1.39l-2.54,1.41L.12,90.77c-.23-.42-.1-.81.07-1.26.06-.17-.06-.42-.06-.69v-54.59c0-.42.11-.79.02-1.16.39-.44.56-.94.86-1.45l4.67-8.09c.18-.32.4-.69.73-.8.42-.15.62-.38,1.01-.61L44,1.01l1.83-1.01,7.86,4.51,6.01,3.44c.69.4,1.26.86,2.06,1.1l15.55,8.94,4.96,2.85.06,2.06v54.26c0,.39-.13.55.03.91.09.22.18.8-.06.96l-1.09.7-1.44.79-31.02-17.91c-.19-.28-.03-.83.07-1.07.12-.29-.03-.5-.03-.8v-23.17c0-.35.12-.6,0-.97l-10.88,6.27ZM60.31,8.91c.12.07.2.05.25.02.08-.04.18-.15.14-.22-.05-.09-.2-.1-.28-.15l-6.89-3.99L45.77.08c-.05.08-.15.17-.21.23l7.18,4.19c.39.23.72.44,1.11.66l4.45,2.53,2.01,1.22ZM59.17,9.71l1.13-.62c-.2-.28-.51-.33-.8-.5l-5.9-3.42-.8-.45L45.34.45c-.38.09-.56.34-.91.54L7.48,22.31c-.26.15-.45.14-.72.41l14.84,8.57c.33.15.62-.25.89-.41L59.17,9.71ZM76.3,17.93c.1.06.29-.23.09-.33l-14.49-8.37c-.21-.12-.36-.16-.59.04l14.99,8.65ZM21.8,31.88c.54-.17.85-.5,1.35-.79L59.88,9.88c.2-.11.36-.14.42-.23.09-.12.05-.34-.08-.42l-1.92,1.19L22.71,30.97c-.37.21-.69.28-.97.56-.03.06.01.27.06.35ZM38.14,39.88l37.02-21.38c.34-.2.65-.22.85-.51l-14.9-8.6-1.88,1.07L23.15,31.3c-.32.18-.55.17-.9.51l14.95,8.63.94-.56ZM79.86,22.7l2.16-1.26c.14-.08.21-.25.16-.4-.03-.1-.15-.22-.33-.24l-4.72-2.71c-.08-.27-.73-.37-.74-.1l-.09,2.78c.34-.16.46-.04.7.1l2.4,1.38c.18.1.3.2.45.45ZM48.23,36.73l1.26-.74,13.44-7.75,7.82-4.52,3.93-2.29,1.43-.79v-2.48s-.95.56-.95.56l-37.01,21.36c-.32.18-.6.2-.86.47l-.02,2.49c.44-.13.6-.37.93-.56l10.02-5.76ZM73.47,23.53l3.21-2.26c-.2-.1-.44-.34-.69-.35-.27-.01-.51.29-.73.41l-2.84,1.6c.35.29.65.48,1.05.59ZM75.94,23.57l2.56-1.69-1.42-.81c-.22.33-.53.49-.84.7l-1.2.84c.31.13.53-.07.73-.08.33-.02.48.22.47.49-.01.19-.26.27-.3.55ZM82.09,78.11c.21-.24.03-.64.03-.95V22.8c0-.42.19-.66,0-1.15l-2.12,1.19v55.32c0,.47-.18.71.02,1.26l2.07-1.31ZM75.52,24.07c-.39.33-.72.53-1.18.62l5.21,3.04.02-4.73-1.38-.78-1.32.96.31.79-.52.73c-.42-.15-.75-.35-1.15-.62ZM76.15,22.82c-.79-.19-1.63.23-1.91.97.81.22,1.59-.22,1.91-.97ZM75.46,23.88c-.55.09-.87.2-1.26.03-.07-.32.07-.55.29-.85-.69.26-1.34.85-1.2,1.16.3.65,1.63.31,2.17-.35ZM15.69,41.16l4.14-7.24,1.29-2.16-14.99-8.66-.72,1.28-4.23,7.3-.49.83,15,8.64ZM79.75,79.37c.23-.54.03-.7.03-1.09V28.46c.04-.39.1-.42-.15-.56l-5.37-3.05-.55-.13-2.16-1.18c-.24-.13-.49.22-.67.32l-5.5,3.13c-.54.31-.49.4-.48,1.02v40.6s0,2.16,0,2.16l8.73,5.04,6.14,3.55ZM64.09,70.16c.2.01.4-.13.52-.24.2-.18.07-.47.07-.75V28.35s.05-.88.05-.88c-.21-.06-.4.15-.54.24-.21.15-.07.49-.07.75v40.49s-.03,1.21-.03,1.21ZM49.02,61.63l14.85,8.58c.18-.53.03-.8.03-1.26V28.79c0-.37.12-.6,0-.93l-14.35,8.31c-.25.15-.48.18-.55.34-.13.28.02.44.02.72v23.62c0,.23-.22.6.01.78ZM16.5,40.73l4.49-7.77c.19-.32.51-.57.2-1.07l-5.05,8.76c-.2.34-.47.56-.34,1.03.4-.18.45-.55.69-.95ZM36.64,40.35l-14.61-8.43c-.18,0-.28.26-.06.34l14.68,8.48c.16.09.33-.16.23-.23l-.24-.16ZM30.2,49.66c.37.22.62.48,1.02.6l.48-.94,4.21-7.32.69-1.16-15-8.66-1,1.84-3.65,6.33-.77,1.23,1.04.57,13,7.51ZM15.59,41.67c.23-.28.05-.41-.19-.54L.82,32.73c-.11-.07-.22.15-.19.2s.02.13.16.21l14.79,8.54ZM15.2,98.33c.17-.57.07-.82.04-1.28v-54.48c.07-.24.17-.65.01-.81L.37,33.16c-.2.44-.02.74-.02,1.19v54.59c-.06.21-.18.69,0,.81l14.85,8.58ZM33.46,49.56c1.21-2.08,2.41-4.15,3.62-6.23,0-.87,0-1.74,0-2.61-.47.12-.51.51-.7.84l-4.71,8.16c-.2.35-.56.57-.38,1.11.32-.25.7-.51,1.15-.76.37-.21.72-.38,1.04-.51ZM15.46,98.29c.27-.12.38-.19.56-.37v-56.14c-.18,0-.38.05-.55-.01-.2.29-.01.47-.01.81v54.48s0,1.24,0,1.24ZM31.06,50.34l-.99-.55-13.29-7.67c-.24-.14-.37-.33-.63-.37-.06.16-.03.35.04.44.06.08.22.07.37.15l13.77,7.96.75.48c.08-.15.07-.37-.03-.43ZM31.13,50.92l-.78-.41-14.22-8.23v56.6s14.99,8.65,14.99,8.65v-56.6ZM31.24,107.53l2.22-1.33v-56.48s-2.22,1.18-2.22,1.18v56.63ZM79.57,79.53l-14.65-8.45-1.37-.79-13.87-8.02c-.22-.13-.51.15-.73.31l21.4,12.36,9.3,5.37c.1-.19.19-.62-.08-.78ZM79.91,80.33l2.22-1.29c-.12-.16-.48-.45-.69-.33l-1.17.65c-.43.24-.57.38-.37.96ZM30.91,108.4c.19-.2.15-.47.03-.72L.18,89.93c-.09.26-.11.57.04.75l30.68,17.72ZM31.18,108.48l2.29-1.4c.18-.11.13-.55.05-.66l-2.33,1.28c-.1.15-.11.5,0,.78Z"/>
  </g>
</svg>