<?xml version="1.0" encoding="UTF-8"?>
<svg id="Ebene_2" data-name="Ebene 2" xmlns="http://www.w3.org/2000/svg" viewBox="0 0 74.86 104.56">
  <defs>
    <style>
      .cls-1 {
        fill: #fff;
      }
    </style>
  </defs>
  <g id="Ebene_1-2" data-name="Ebene 1">
    <g>
      <path class="cls-1" d="M43.4,58.42l-1.19.36c0,.55.1,1.04-.13,1.57l-1.9-1.23c-.31,0-.72.2-1.06.11l.05,2.74.09,4.64.11,6.56-.61-2.85-.88-4.67-.35,3.01c-.18-.44-.17-.85-.2-1.27l-.11-1.29-.1-1.5-.12-1.6c-.04-.56-.08-1.07-.11-1.62l-.08-1.73c0-.15-.44-.14-.45,0l-.05,1.74c-.02.59-.07,1.13-.11,1.72l-.11,1.71-.11,1.29-.11,1.27-.08.89c-.58,6.79-1.63,13.47-2.69,20.22-.18,1.17-.32,2.18-.35,3.33l-.16,1.43c-.15-.08-.14-.18-.19-.4l-2.05,11.73.03-4.65.1-4.7.1-4.96.11-6.11.03-16.06-.13-2.5c-.11-2.17-.34-4.27-.87-6.4l-1.21-.29c-1.47-.36-2.54-1.73-3.84-1.82,0,.12.04.22.07.29.03.08-.08.27-.16.24l-.46-.19.1.86v8.34s-.12,1.2-.12,1.2c.05,1.02.03,1.98-.1,2.97-.53-2.51-.81-4.93-1.2-7.51l-2.42,13.08.14-3.7.09-1.73c.04-.69.09-1.33.1-2.05,0-.53.17-1.04.09-1.6-.06-.41.07-.79.09-1.19l.07-2.1.11-2.66.1-3.02.05-2.5c-.24-.49-.99-.53-1.42-.71l-.91-.39-1.21-.96c-.27.02-.49.12-.73.26l.55,1.56c.63,2.31,1,4.62,1,7.03v7.93s-.11,2.12-.11,2.12c-.03.62-.03,1.27-.08,1.91-.08,1.09-.08,2.11,0,3.21l.1,1.29.1,1.19.13,1.27.55,4.61c.08.63.18,1.19.11,1.83l-.5-1.87-.96-4.47-.13,1.41-.11,1.4-.1,1.19-.12,1.38-.74,7.84-.4,3.76-.12-2.49-.09-2.52-.11-4.3-.11-4.18-.11-3.73-.11-3.23-.09-2.26-1.41-6.6c-.62,5.21-1.2,10.39-2.06,15.61l.07-2.93.1-1.49c.05-.71.08-1.35.11-2.04l.07-1.77.1-2.27.11-2.77.1-4.08.03-5.73-.2-4.21c-.45.57-.73,1.12-1.26,1.53.35-1.07,1.01-2.06,1.02-3.22.01-1.09-.21-2.22-.45-3.27-.17-.76-.82-1.29-1.15-1.97l-.22-1.05c.06-.22.45-.5.32-.84-.2-.52-.38-1.08-.69-1.51-.48,1.19-.99,2.22-1.82,3,.64-1.57,1.18-3.08.86-4.72-.17-.58-.81-1.07-.88-1.75-.24-2.19.74-4.83,2.07-6.66-.77-.64-1.1-2.11-.74-2.83.22-.45.13-.77-.11-1.17-.49-.84-.37-3.18-.69-3.62l-1.71-2.37c-.83-1.15-1.74-2.15-2.64-3.25L0,18.42c.76.18,1.25.68,1.88,1.06l5.89,3.62-2.27-14.34,6.48,11.02,3.13-2.03.99-2.24c.16.52.03,1.02.08,1.61,1.1-.69,2.05-1.39,3.3-2.03l-2.46,7.63-1.23,3.68.93,1.61c3.5-1.76,8.39-3.43,12.22-3.77.7-.06,1.35-.19,2.04.04.23.08.47-.14.58-.25.21-.2.12-.43.15-.77L34,.31c.66-.44,1.61-.41,2.2.09.08.48.17,1.03.22,1.58l2.2,22.04,4.9.8.75-1.98-1.73-10.86c.75.93,1.15,1.87,1.7,2.79.15-.34-.07-.63-.07-.9,0-.62-.07-1.14-.17-1.71l1.34.95,2.05,1.53,4.3-11.16.02,6.58-.04,5.29,3-3.59-1.51,5.52,1.84-1.42c-.54,1.47-1.24,2.72-1.89,4.06l-1.45,2.97c-.13.27-.02.65-.02.95l2.32,2.41,1.73,1.93,1.31,1.29c.11.08-.03.22-.08.1l-1.22-1.29-.66-.72c-.51-.56-1.03-1.04-1.53-1.58l-1.56-1.66.99,3.72,1.09,3.95,1.27,4.51.87,3.03c-.09.13.07.26.11.15.22-1.2.02-2.52.33-3.7l1.82,2.31c.1-.06.18,0,.2.05-.02.1-.13.17-.19.17l-1.79-2.31-.09,2.08-.07,1.77c-.03.65-.16,1.26-.07,1.97-.08.11-.2,0-.14-.11-.23-.28.17-.85-.05-1.62l-1.36,1.57c-.44.51-.78,1.11-1.04,1.75l-.08.55c-.06.43-.11.78.16,1.16-3.99,1.14-9.47-1.21-12.25-4.16l-.73-.78c-.8-.85-1.32-1.83-1.85-2.85-.57-1.08-.7-2.24-.65-3.49l-.05-.36c-.01-.07-.3-.12-.32-.04-.17.66-.13,1.33-.04,2.02l-1.28-1.69c-.1-.13-.19-.19-.32-.09-.3.24.8,1.13,1.38,2.59.91,2.29.48,4.84-.8,6.93-1.66,2.73-4.22,4.49-7.25,5.41-.79.24-1.56.37-2.38.52-1.64.3-1.45-.93-2.36-1.89l-.62,1.95c-.09-.06-.18-.13-.16-.16l.15-.22c.01-.43.25-.77.37-1.14l1.27-3.92-3.12,1.65c-.08.04-.15.04-.18-.02-.03-.05,0-.13.09-.17l.74-.34.38-3.74,1.26-13.42c-.31.22-.35.6-.52.93l-3.5,6.57c-.53.98-1.04,1.88-1.49,2.9l-.23.31c-.09.13.06.3.17.45l1.03,1.45c.05.08.02.17-.03.19-.06.02-.13,0-.18-.09-.35-.72-.8-1.32-1.23-1.99l-2.35-3.54-1.39-2.17c-.18.43.07.79.05,1.12-.03.58.06,1.07.09,1.61l.1,1.5c.09,1.27.13,2.49.23,3.75l.1,1.39.2,2.95.07,1.74c0,.1.14.21.12.27-.1.42-1.61.8-2.58,1.1l-2.57.78,7.27,2.07c-.02.06-.07.11-.08.12l-1.91-.49c.26,2.91,2.81,4.8,5.64,4.3.21-.02.2.2,0,.14l-1.3.11,1.23.8c.6.39,1.25.82,1.95,1.05,1.34-.89,2.89,1.1,4.06,1.39l1.41.35c-.31-.52-.7-.84-1.14-1.15-1.49-1.05-3.07-1.88-4.7-2.69-.32-.16-.5-.17-.92-.07.43-.37.92-.39,1.42-.27l-.66.1c1.67.68,3.18,1.65,4.74,2.62l3.19.33,1.09.08h3.48c-.42-1.39-.7-2.59-.82-3.93,0-1.08.32-2.04.76-3.03,1.03-1.2,2.47-1.89,4.06-2.04l1.09-.1c3.7-.34,7.66,2.87,7.28,6.99-.02.22.47.16.62.1l1.99-.81c1.08-.44,2.81-.97,3.59-1.7l2.72-3.49c-1.16.24-1.99.54-3.09.61-.19.09-.22-.25.02-.19.44.07.8-.14,1.16-.16.72-.05,1.31-.29,1.99-.48l1.8-.13c2.29-.47,3.67-2.32,3.78-4.69-.16.12-.35.31-.48.06l11.55-4.86h-1.52c-.58.01-1.13.08-1.72.11l-1.82.11-1.93.11-1.4.1c-.74.05-1.25-.55-1.19-1.31l.43-1.72,1.93-7.93.84-3.4c-.74.49-1.04,1.22-1.57,1.81-.75.82-1.39,1.67-2.08,2.53l-2.32,2.93c-.14.18-.26.37-.41.41-.19.05-.49.03-.63-.13-.69-.78-1.37-1.53-2.17-2.24-.1-.09.03-.24.12-.14l1.81,1.99c.23.25.68.53.96.22l.52-.57,3.58-4.42,1-1.27,1.26-1.55s.07-.09.24-.11l-1.18,4.77c-.14.56-.35,1.06-.37,1.67l1.42-1.43c.01-.08.17,0,.12.08l-.62,1.43-2.33,5.49-.42,1.71c-.1.4.23.72.43.88.35.27.66.1,1.05.1.67,0,1.28-.06,1.93-.1l1.82-.11,1.82-.11c.63-.04,1.2-.02,1.83-.12.43-.07.93-.05,1.33.08l-11.6,4.86-.35,1.69c-.14.66-.99,1.69-1.6,2.3.07.92.46,1.67.83,2.59-.66-.56-1.22-1.25-1.62-2.08-.61,0-.78.44-.96.94-.85,2.34-1.28,4.2-1.53,6.69l-.13,1.25-.12,1.73.04,9.59.12,3.1.09,2.27.07,1.77.11,1.94.12,1.93.11,1.82.11,1.81.4,6.58c-.05.08-.14.03-.18-.11l-.23-1.87-1.28-9.85-.72-6.44-.69,3.35-1.36,5.86c.07.2-.17.27-.16.07l.49-5.8,1.1-9.91-.03-2.31-.02-6.7.11-1.83.21-2.45.11-.89c.11-.21-.18-.28-.19-.04l-2.14,3.02c-.23.59-.15,1.36-.19,1.99l-.11,1.51-.1,1.4-.11,1.72-.11,1.82-.11,1.82-.11,2.04-.11,2.04-.1,1.93-.11,2.35-.1,1.28-.17,2.9.02.22s-.03.02-.06.02c-.06,0-.12-.02-.1-.14l-.26-2.44-.85-8.74-.89,4.6.13,6.31.1,3.54.11,2.87.07,2.1c.01.43.06.86.08,1.29l.09,1.6.1,2.05.1,2.04.11,1.93.11,1.93.1,1.72.07,1.63s-.01.15.01.2c.02.03,0,.07-.07.05-.07-.03-.05-.08-.06-.15l-.71-3.42-2.18-12.22c-.36,1.1-.47,2.3-.69,3.49l-.44,2.38c-.02.1-.1.13-.14.11-.04-.01-.1-.14-.08-.2.16-.57-.07-1.08-.06-1.61l.05-6.39.08-5.41c.01-.83-.02-1.56-.1-2.38l-.32-3.22-.12-1.47-.1-1.73.03-4.78.22-3.31c.03-.38.13-.56-.19-.82l-1.66-1.41c-.56.25-1.06.49-1.59.55-.01.02-.03.05-.06.05ZM36.12.5c-.04-.52-1.94-.42-1.94,0,0,.51,1.98.54,1.94,0ZM38.64,25.87l-.7-7.1-1.62-16.17c-.05-.63-.13-1.09-.16-1.86-.76.4-1.42.43-2.05.02l-2.07,20.89-.43,3.8c-.16,1.39,1.58,1.74,2.97,1.95,1.54.22,4.15-.58,4.05-1.54ZM52.61,17.91l-1.67,1.35c.02-.34.29-.43.62-.53l-.02-14.42-3.74,9.73c-.09.23-.35.51-.16.76.23.3.81.34.89.84l-2.67-1.98-1.66-1.3c-.14.55.07.92.12,1.33l.35,2.86.64,5.36c-.06,0-.12,0-.15,0l-.85-6.71c-.06-.5-.58-.91-.79-1.32-.25-.48-.42-.93-.75-1.32l1.7,10.2-.87,2.23s-.12.14-.13.13l-.11-.15-4.63-.77c-.16.38.1.89.04,1.35-.17,1.31-.67,2.49-1.06,3.8.17.07.65.17.84.02.88-.67,1.76-1.24,2.86-1.39-.14-.23-.31-.18-.47-.22.33-.19.71.02,1.07.04.72.02,1.35.13,2.05.31,2.13.56,4.21.97,6.43,1.11.81.05,1.52.19,2.37-.06-.16.26-.41.27-.65.26l-1.61-.02c-.43,0-.84-.19-1.31-.03,1.52.41,2.88,1.06,4.35,1.85l-.91-3.48-1.51-.64c.15-.13.36-.05.34-.12l-.09-.39.02-2.76c0-.11-.02-.24-.07-.25l-.2-.06.93-1.99,1.72-3.52.73-1.65-1.91,1.48s-.06.03-.08.08ZM13.03,34.29c.14-.33.38-.08.47-.08l1.81.02-.02-1.74,1.1,1.54c1.27.16,1.48-1.74,1.53-3.18.35.2.16.54.05.82l1.2-.23c.68-.13,1.21.37,1.59.72.75-.19,1.51-.56,2.31-.67l2.24-4.16c.13.2,0,.36.12.7.71-.5,1.42-.84,2.19-1.22,1.08-.53,2.13-1.12,3.32-1.37.38-.08.68-.01.68-.53,0-.3-.13-.47-.57-.5-1.53-.12-2.98.06-4.5.38-3.39.72-6.59,1.86-9.74,3.34.12.44.42.65.63,1.12-.32-.27-.51-.62-.73-.98l-.92-1.59c-.09.14-.13.25-.29.27l1.01-3.21,2.73-8.32-2.86,1.78-4.2,2.65c-.29.18-.42-.04-.55-.25l-5.87-10.09,2.44,15.32.91.47v.15s-3.45-1.79-3.45-1.79c-.47-.24-.85-.57-1.46-.68l2.94,3.99,2.16,2.91c-.4.16-.1.64-.03,1.62.05.7.2,1.38.57,2.01.16-.2.14-.48.44-.53-1,1.65-.93,3.46.81,4.55-.28.1-.42-.13-.63-.28-1.13,1.55-1.78,3.34-2.08,5.27-.13.86.46.2,1.41.04.45-.08.81-.28,1.15-.59.92-.87,2.05-1.44,3.32-1.6.55-.07-.21-1.1-.52-2.43-.03-.11-.11-.27-.24-.31-.07-.02-.11-.04-.24,0,.62-.21-.26-1.06-.36-2.08l1.47,1.6,1.24-.51c-.2-.8-.17-1.49-.15-2.28-.83.21-1.62.12-2.41-.04ZM52.66,17.75c.1-.09.2-.16.27-.28l1.44-5.16-2.71,3.36v2.81s.91-.66.91-.66l.09-.08ZM8,24.69c.03-.59-.13-.93-.23-1.37l-5.99-3.74c-.33-.27-.66-.48-1.1-.62.79,1.25,1.8,2.21,2.63,3.35.25.34.36.17.62.3l4.07,2.08ZM52.67,27.53c-.43-1.17-.64-2.21-.97-3.3l-.04,2.88c.37.16.59.36,1.01.42ZM31.88,27.35l-.32-1.21-.12-.74c-1.59.52-3.02,1.1-4.41,1.89l-1.49.84,6.34-.77ZM35.95,33.1c.39,0,.57-.44.64-.75l1.8-5.71c-1.74,1.27-4.79,1.33-6.48-.01,0,.58.26.9.38,1.35l1.56,4.86c.07.22.37.32.51.44.03-.25.11-.42.26-.49.49-.22.97.32,1.32.31ZM32.41,29.45c-.14-.75-.43-1.3-.52-1.98l-1.18.21c.65.6,1.1,1.14,1.71,1.77ZM32.61,30.95c-.05.4.09.7.48.85l.11.15s.22.01.21-.03l-.09-.23c-.1-.85-.53-1.46-1.03-2.09-.55-.69-1-1.41-1.78-1.93l-5.2.63-.23,2.61.91-.5c2.05-1.37,4.58-.52,6.47.95.11-.16.05-.3.17-.41ZM39.79,29.13c1.5-.91,2.8-.63,3.01-.92.4-.55-3.24-.35-5.57,2.62-.17.22-.22.61-.22.84.84-1.01,1.7-1.89,2.78-2.55ZM54.79,35.33l-.9-3.32c.02-.51-.31-.63-.68-.84-2.45-1.34-5.07-2.18-7.87-2.38l-1.39-.02c-.15,0-.23.04-.29.07-.07.04-.1.29,0,.34.35.18.77-.03,1.15,0,4.16.36,7.51,2.95,9.99,6.15ZM38.05,32.24c1.72-1.18,3.43-2.2,5.29-3,.14-.06.2-.22.14-.29-.29-.31-3.3,1.42-4.37,2.14l-2.04,1.38c.36,0,.64-.1.99-.24ZM47.37,31.17c.45,0,.85-.14,1.33.16.02-.93-.51-1.23-1.18-1.43-1.08-.31-2.1-.56-3.25-.53-.47.01-.95-.11-1.32.22l1.01.35.12-.26c.82,1,1.96,1.46,3.29,1.49ZM49.36,32.56c-.08-.37-.45-.42-.6-.63-.08-.11-.02-.42-.11-.49s-.32-.2-.46-.17c-1.42.27-2.69-.15-3.8-1.02-1.8-.75-1.61-.57-2.59-.1-.72.35-1.34.67-2,1.15l-.16,1.51,1.84.26,1.49.11c2.18.16,4.29-.02,6.38-.62ZM33.02,32.45l.56.34c.22-.57-1.24-1.37-2.13-1.94s-1.96-.88-3.09-.99l-1.44.2c0,.21.17.38.4.32,2.1-.51,4.06.65,5.7,2.06ZM31.23,31.68c.2.09.4.13.61.04-1.63-1.02-3.68-1.96-5.27-.83l.83-.05c1.03.09,2.98.44,3.84.84ZM37.4,32.04c.79-.58,1.52-1.03,2.3-1.52l-1.26-.19c-.57.51-1.11,1.11-1.56,1.73.14.2.36.09.52-.03ZM50.1,31.77c.07-.13.19-.02.13.04-.04.05-.08.11-.1.24.18.07.61-.37.5-.57l-2.03-1.15c.19.52.28.91.19,1.45.21.2.41.48.67.62.24,0,.5-.4.63-.64ZM34.26,33.73c.03-.6-.42-.63-.73-.88-1.27-.72-2.64-1.15-4.05-1.54l-2.29-.34c.06.55.53.4.87.47l2.31.5c1.4.41,2.63,1.11,3.9,1.78ZM65.5,35.98l2.1-4.78c-.56.23-.91.74-1.23,1.17l-.87,3.61ZM20.2,32.83l.61-.24c-.23-.38-.48-.75-.9-.95l-1.17.83c.52-.03.92.14,1.46.35ZM49.03,33.57c1.48.02,2.85.28,4.48.55-.7-1.04-1.67-1.8-2.67-2.5-.92,1.26-3.07,1.57-4.66,1.68.91.37,1.94.03,2.85.27ZM28.92,33.96c.08-.02.1-.38.18-.38s.23.15.32.16c.95.2,1.86-.33,2.07-1.28l-2.14-.63-1.82-.05c-.9-.03-1.78.02-2.58.41-.11.77-.23,1.84-.16,1.9l.91.84c1.07-.44,2.11-.66,3.23-.97ZM20.67,33.28c-1.1.9-2.29,1.45-3.12,2.55l.99,1.47c.87-1.53,2.08-2.66,3.41-3.73.27-.21.34-.64.52-1.01l-1.47.62c.07-.19.31-.19.34-.39-1.64.6-3.16,1.11-4.87,1.4.39.54.68.97.98,1.49,1.09-.88,1.99-1.88,3.23-2.41ZM37.8,38.19c.12.45.08.95.33,1.36.05-1.41-.26-2.71-.86-3.89l-.65-.99c-.29.19-.57.31-.96.4.12.36.34.52.37.82l-.08.07-.45-.89c-.79.14-1.48-.03-2.02-.56l-1.54.25v-.16s1.44-.19,1.44-.19c.14-.28.17-.58.18-.9-.52-.36-1.02-.61-1.66-.83-1.93,1.98-4.65,2.88-7.34,3.55l-.31,3.23c3.91-1.69,10.29-1.4,12.35,2.67.03.06.02.22.11.23.05,0,.12,0,.25-.03-.02.32-.15.63-.02.94.56-1.08,1.08-2.22,1.08-3.44,0-.51-.58-1.04-.22-1.63ZM41.31,33.5l2.1-.07-1.39-.15c-1.18-.12-2.29-.29-3.42-.52l-.02.92c.84.01,1.84-.15,2.74-.19ZM54.98,41.49l.83-.97c.21-.25.32-.55.22-.9l-.97-3.53c-.12-.27-.52-.43-.72-.68-.29-.34-.49-.91-.89-1.14l-3.07-.45-1.06-.11-1.61-.11h-5.46s-1.08.09-1.08.09c-.46-.07-.85.04-1.29.09s-.86-.07-1.31.14l-.02,1.16.55,2.15c.07.28.17.5.4.78,2.59-2.2,6.62-2.11,9.81-1,2.36.82,4.48,2.17,5.68,4.47ZM36.16,34.19c-.28.34-.73.38-1.11.38-.61,0-1.03-.28-1.13-1-.38.12-.38.44-.31.69.18.68,1.84,1.03,2.82.36.14-.09-.15-.5-.27-.43ZM27.29,35.25c-.14-.06-.32-.1-.37-.31.22-.04.22.1.29.12.08.02.23-.05.31-.1.58-.35,1.59-.24,2.56-1.05l-1.51.27-2.76.84.24.14c-.8.29-1.56.05-1.39.69.66-.43,1.23.02,1.45-.54-.03.48.37.27,1.19-.06ZM20.18,36.64c.42-.13.49-.61.6-.91.31-.61.74-1.06.92-1.77-.8.56-1.44,1.16-1.98,1.91-.17.23.12.89.47.78ZM15.77,40.67l-.07-1.74-2.43-2.76c.15,1.11.63,1.94,1,2.87.2.69.44,1.32.68,1.99l.96,2.58c.11-.79-.1-1.92-.14-2.95ZM53.05,39.42c-.31-.55-.85-.83-1.38-1.12-.78-.44-1.53-.88-2.4-1.14-1.08-.32-2.15-.62-3.29-.67l-1.08-.06-1.18.08-.97.13c.24.11.55.09.82.02.6-.16,1.16-.02,1.76.02,2.77.19,5.48,1.13,7.72,2.74ZM19.34,38.5l.94-1.71-1.29.03-.37.63.71,1.05ZM46.45,37.9c.44.11.83.19,1.33-.05-.46-.31-.95-.75-1.53-.89-1.25-.3-2.58-.18-3.95.04,1.43,1.06,3.02.61,4.15.9ZM50.11,39.01c.63.28,1.24.7,1.62,1.23-.72-.47-1.17-1.06-1.99-1.17-.06.19-.09.4-.19.54-.83-.37-1.78-.43-1.75-.08.05.62,3.08,2.61,4.39,2.28-.23-.31-.2-.61-.22-.93.47.11.58.4,1.06.57l-.62-1.05s.05-.04.06-.06l.8,1.16,1.63.18c-.56-.98-1.34-1.61-2.16-2.23-.29.13-.49.27-.6.56.14.09.26.19.23.34-.9-.96-1.81-1.88-2.89-2.67-.19-.14-.46-.12-.66-.19-.63-.23-1.2-.43-1.94-.45l.9.66c.1-.06.25,0,.19.11-.28.5-1.56.21-2.12.21-1.37,0-2.67-.13-3.8-.97-.68.14-1.33.24-1.9.63.03.12.09.25.04.3-.05.05-.23.08-.3.07-.15-.04-.2-.02-.26.02-.08.05-.1.26-.03.35l1.07,1.44c.29.39.5.83.95,1.1.39.23.94.4,1.18.83.11.2.11.39.34.54l1.96,1.24c1.84,1.01,3.79,1.69,5.9,1.85.57.04,1.03.14,1.63-.02.22-.06.71.1.84-.24.15-.38.07-.84.12-1.25s.6-.5-.18-1.79c-.27-.45-.79-.69-1.2-.97-.25.33.13.47.14.6.08.78-2.59.06-4.16-1.46-.31-.3-.56-.65-.59-1.05.64.04,1.14-.23,1.89.21l-.06-.82c.16.38.43.3.66.4ZM28.7,39.6c.26-.14.43-.4.56-.64-1.24-.07-2.41.15-3.6.48.34,1.02,2.03.71,3.05.16ZM25.62,45.72c.95-.1,1.83.22,2.13,1.02s-.68,1.66-.37,2.05c.08.1.31.29.5.24l2.52-.56c-.92-.55-1.69-1.43-1.18-2.28.32-.43.51-.92.57-1.46.85-1.21,2.28-1.65,3.71-1.26.17-.25.1-.58.15-.78.26-.06.47-.25.7-.38.65-.36,1.38-.28,2.11-.14-.23-.67-.64-1.2-1.19-1.64-1.34.08-2.64-.26-3.7-1.1-.13-.1-.18-.45-.4-.45l-1.69-.06c-.55.93-1.59,1.33-2.66,1.33-.6,0-1.1-.24-1.34-.79l-1.25.47-.19,2.1c1.04-.87,2.25-1.39,3.58-1.08l.84.34c.05.06.09.21.12.32.72-.43,1.64-.76,2.46-.45l.86.33c.06.41-.08.83-.45,1.15-.91.77-2.65.99-3.32-.05-.83.98-1.84.88-2.07,1.7l-.4,1.41ZM35.11,40.43c-.82-.75-1.84-1.06-2.95-1.26l.42.75c.78.35,1.59.45,2.53.51ZM16.28,47.43l-.17-1.66-.07-1.32-1.51-4.29c-.5,1.02-.61,1.97-.85,2.96.1.38.03.74-.07,1.09-.07,1.32.21,2.57.7,3.8l1.97-.59ZM12.68,41.58c.46-.05.75.07,1.14.14l.45-1.3c-.86.18-1.56.5-2.29.91.6,1.13,1.05,2.24,1.47,3.45.04-.86.02-1.6.28-2.43l-1.06-.76ZM30.86,42.8c-1.71-.3-1.45-1.88-2.29-1.03-1.02-1.3-3.3-.72-4.59.42-.1.49-.11.95-.07,1.45.47.11.77.37,1.16.66,1.05-.71,2.22-.85,3.05-1.85.6.87,1.87.88,2.75.36ZM31.42,42.48c.17-.15.51-.57.28-.79-.62-.59-1.59-.54-2.4-.3.23.87,1.64,1.56,2.13,1.1ZM10.86,48.67l1.39-1.74,1.27-1.44c-.33-1.07-.64-2.09-1.15-3.06l-.53-1.02c-1.09.57-1.9,1.49-2.51,2.6-.12.23-.54.63-.39.92.67,1.14,1.47,2.39,1.92,3.73ZM34.98,44.26c.79-.48,1.1-1.37.73-2.1l-1.01.16.15.6c0,.44-.09.87.14,1.34ZM36.32,44.11c.33-.24.43-.79.41-1.14-.02-.49-.35-.79-.87-.72.35.79.05,1.41-.61,1.98.29.12.75.11,1.07-.13ZM34.6,44.36c.34-.64-.05-1.16,0-1.96-.62.18-.95.59-1.04,1.25-.52-.22-1.08-.28-1.7-.11.53,1.17,2.55,1.19,2.74.82ZM8.81,44.75c.31-.85.77-1.48,1.38-2.15-.78.08-1.16.46-1.92.42.13.59.13,1.11.54,1.73ZM34.09,46.43c.3-.19.11-.43.15-.62.1-.41.55-.67.41-1.28-1.15.5-2.28,0-2.94-.96-.59.1-1.11.35-1.51.86,1.1.41,1.59,1.19,1.94,2.16.09.26.56.47.44.83l1.5-.98ZM34.45,46.15l1.66-1.71c-.57-.02-.93-.03-1.37-.15.24,1.05-.47,1.43-.28,1.86ZM30.65,48.31l1.83-.81c-.1-.48-.41-.69-.62-.97-.12-1.02-.82-1.78-1.84-2.02l-.28,1.16-.46.86c-.16.72.5,1.86,1.37,1.78ZM14.14,48.06c-.34-.8-.47-1.44-.59-2.36-1,1-2,2.02-2.69,3.38l3.28-1.02ZM10.07,46.97l-.76-1.14c.07,1.25-.03,2.22-.44,3.37.57-.64.87-1.39,1.2-2.22ZM27.57,49.09c-.39-.2-.5-.56-.4-.77l.52-1.11c.14-.29-.63-1.54-1.31-1.26.14.73-.42,1.27-1.13,1.42l.66,1.27c.36.7.9.63,1.66.45ZM47.29,56.68c.09-.06.34-.11.4-.27l.6-1.52c.1-.27-.05-.61-.1-.92-.44.02-.72-.14-.88-.43-.2-.38.1-.74.22-1.01-.72-2.26-4.36-3.88-6.67-3.58l-1.42.18c-.12.02-.21.11-.23.18-.03.09.01.26.07.26l.39-.04c1.53.18,2.62,1.7,2.41,3.19-.13.93-.52,1.63-1.23,2.21.78.16,1.38.52,1.55,1.2s-.16,1.64-.1,2.49l1.04-.26.06-.05c.43-.28.97-.35,1.58-.57-.14-.25-.37-.35-.57-.57.19-.63.84-1.02,1.48-.9.14.34.19.63.4.92l.92-.44.08-.07ZM14.69,52.79c.75.15,1.54-.09,2.39.14l-.55-1.17-1.11-1.31c-1.51-.47-3.02-.79-4.52-1.36-.1.07-.25.38-.13.52l1.07,1.17.23-.2c.03.29.12.58.42.77.7.44,1.37,1.27,2.2,1.44ZM41.01,50.23c-.55-.48-1.13-.55-1.71-.47-.14-.03-.18-.21-.24-.42-.09.34-.06.67-.04,1.09.67.19,1.44.2,1.99-.2ZM58.54,86.31l-.1-1.46-.11-1.6-.1-1.83-.11-1.71-.11-2.04c-.04-.73-.08-1.42-.11-2.15l-.07-1.67-.1-2.89-.1-4.08v-5.57s.07-2.41.07-2.41l.1-1.09.27-2.56c.04-.39.14-.65.2-1,.3-1.64.64-3.19,1.48-4.75-.76.18-1.31.37-2.01.18-.1-.03-.27.21-.31.35l.53.44c-.25.07-.46-.02-.75-.09-.59.39-.91,1.06-.65,1.74-.29,1.23-.39,2.46-.45,3.71l-.1,2.03v4.39s.08,2,.08,2l.11,1.93.11,1.39.1,1.4.11,1.17.09,1.29.97,8.57,1,7.73c.19-.43,0-.92-.03-1.43ZM41.72,53.35c-.56-.04-.95-.27-1.15-.63.41-.44.74-.81,1.28-.98-.04-.58-.31-.99-.69-1.4-1.03.42-1.81.57-2.76-.05-.21-.14-.28-.38-.4-.66-.57.23-1.13.49-1.53,1.03,1.24.12,2.23.62,3.07,1.38.06.29.35.56.46.76,0,.57-.34,1.05-.77,1.49.33.43.94.79,1.47.52.56-.29.89-.9,1.02-1.46ZM17.27,86.31l.11-1.36.11-1.29.11-1.28.13-1.51.09-1.39.11-1.5.11-1.72c.04-.62.18-1.24.02-1.86-.23-.92.19-1.77.22-2.67l.09-3.03v-4.72s-.09-2.38-.09-2.38c-.1-2.42-.51-4.76-1.3-7.06l-.68-1.59-1.73.03-.4,1.13-.92-.72.1-.11.74.55.21-.71-.39.26c.05-.34.32-.35.49-.48-1.17-.85-2.2-1.62-3.18-2.58-.18-.17-.26-.46-.58-.52-.07,1.01.85,1.92,1.65,2.44.15.39.18.89.19,1.31l.02,2.22c0,.8-.39,1.49-.67,2.28.45-.15.51-.63.75-.93.65-.8.94-1.67,1.35-2.61.12.6-.33.97-.46,1.47.47,1.55.79,3.09,1,4.69l.34,2.57.27,2.71.1,1.19.08,1.2.22,3.56.09,2.16.1,2.58.11,2.98.1,3.56.11,3.84.11,4.39.07,4.46c.28-.07.25-.25.27-.51l.81-9.08ZM37.87,51.8c.18.64.38,1.08.69,1.62l.05-1.92c-.72-.35-1.41-.56-2.2-.78l-.63,1c.13.18.57.38.62.26l.11-.24s.13.02.12.05.02.23.05.24c.39.16.76-.04,1.19-.22ZM39.84,52.99c-.05-.54-.45-.87-.82-1.16l.05,2.4c.43-.27.81-.73.76-1.24ZM39.43,58.46c-.65-.41-.99-.73-1.06-1.23-.13-.92.7-1.79,1.67-2.2-1.19-.67-1.99-1.72-2.25-3.01-.71.31-1.34.25-2.06-.12-.43,1.42-.33,2.9.06,4.32l.48,1.78c.14.5.19.9.12,1.48l1.5-.19,1.53-.83ZM50.65,56.77c.63-.47,1.05-.87,1.89-.76.2.02.56-.32.74-.4l1.1-1.84c-1.86.99-3.64,1.81-5.63,2.32-.12.03-.38-.08-.4.09l-.04.35c-.04.41-.19.73-.01,1.14.76-.39,1.69-.42,2.34-.9ZM41.96,60.06c.26-1.14.17-2.14.32-3.17.1-.71-.22-1.32-.92-1.66-1.16-.46-2.43.23-2.79,1.41-.18.58-.09,1.04.44,1.4l2.94,2.01ZM52.67,72.61l.08-1.71c.03-.69.08-1.35.12-2.04l.11-2.04.11-1.93.11-1.82.11-1.71.11-1.82.1-1.51.1-1.19c.05-.54.24-1.05.08-1.67-1.17,1.66-1.9,3.48-2.33,5.46l-.66,4.47-.08,1.21-.04,1.59c-.01.61-.18,1.19-.04,1.83l.67-3.68.84-5.08c.06,0,.11-.03.14-.05l-.75,4.93.94,9.84c.29-.38.2-.79.22-1.18l.09-1.91ZM50.54,82.29l-.1-2.96-.11-4.62-.03-3.26.1-4.19.1-1.5.25-2.53c.22-2.21.71-4.33,1.7-6.32.16-.32.45-.52.5-.95-.36.04-.62.26-.76.57l-1.04,2.39c-.7,1.62-.83,3.72-.77,5.55-.4-1.17-.65-2.31-.75-3.55l-.11-1.29.13-1.26c.05-.48.44-.78.65-1.26l-1.93.65c-.78.26-.02-.9-.18-2.17-.48.87-.66,1.82-.87,2.82-.08.37-.31.72-.02,1.16.09-.18.03-.48.33-.59-.62,1.9-.8,3.74-.86,5.67-.03.88-.13,1.7.03,2.6l.03,1.82.11,1.51.11,1.18.11,1.27.27,2.49.78,5.69,3.04,17.38c.2-.61,0-1.15-.03-1.72l-.09-1.94-.11-1.82-.11-2.04-.12-2.04-.07-1.77-.1-2.27-.12-2.71ZM20.78,73.84l1.85-11.12-.41-4.61c-.07-.03,0-.09.02-.07l.33,2.51.11.77.17,1.19,1.12,7.34.04-12.53c-.94-.41-1.75-.86-2.62-1.47l-.13,4.07-.11,2.88-.07,2.2c-.01.43-.14.85-.08,1.29.07.55-.09,1.07-.09,1.6,0,.71-.04,1.36-.1,2.04s-.02,1.35-.12,2.04c-.08.6.08,1.22-.18,1.84.03.21.18.25.27.02ZM51.34,58.08l.53-1.13c.13-.27.27-.47.37-.83-.94-.23-2.38,1.6-2.46,2.38-.18,1.68.07,3.31.46,4.91,0-1.88.29-3.62,1.1-5.34ZM12.82,61.13c.7-.28,1.02-.5,1.5-.55-.25-1.49-.49-2.85-.94-4.34-.22.37-.62.75-.69,1.18-.15.87.22,2.38.13,3.71ZM46.88,59.12l-1.04-2.66c-.56-.1-1.06.21-1.26.72l2.3,1.93ZM47.24,56.81l-.97.48.77,1.68.59-2.3c-.19-.02-.25.06-.32.08-.02.02-.05.05-.08.06ZM30.7,92.89l-.11,4.87-.07,4.24c0,.4-.2.77-.03,1.19l1.85-10.86.44-2.8c1.05-6.64,2.01-13.22,2.7-19.9l.13-1.3.1-1.08.11-1.29.11-1.39.1-1.51c.05-.73.09-1.4.1-2.15,0-.41.24-.86.03-1.25-1.07.12-2.08.17-3.05-.09h2.59c.26.01.6.1.62-.28s-.09-.78-.19-1.2c-.85.06-1.74.02-2.62-.01l-1.77-.07-1.09-.09-2.11-.23c.63.53,1.17.92,1.43,1.67.47-.06.91-.07,1.27.1,0,.18.08.32.18.49,1.21,1.88,2,3.91,2.49,6.18.19-.62,0-1.29-.03-1.97-.02-.63-.03-1.21-.1-1.83l-.23-2.04.15.05.26,2.3.09,1.09.03,2.56c0,.27.18.53-.04.83l-.38-1.39c-.6-2.18-1.38-4.24-2.66-6.14l-1.12-.17c.57,1.74.74,3.83.85,5.67l.1,1.72.08,3.5v9.96s-.12,7.17-.12,7.17l-.1,5.43ZM39.15,71.25c.15-.84.03-1.62.01-2.43l-.1-4.5-.08-5c0-.24-.51-.3-.6-.09-.15.33-.18,1.82-.26,2.88l-.1,1.28c-.07.82-.12,1.54.04,2.35l1.09,5.51ZM37.39,67.06c.43-.21.19-.59.22-.85l.17-1.62.08-1.29.11-1.29c.04-.48.06-.91.1-1.4l.1-1.31c-.39.23-.75.25-1.26.24l.15,1.44.06,1.45c.04,1.01.2,2.12.22,3.23,0,.46.18.9.07,1.4ZM14.32,62.47l.07-1.72c-.55.14-1.13.23-1.59.58l.06,1.68,1.46-.54ZM12.58,80.12l1.24-10.16.15-1.97,1.39,6.68c.18-.62-.01-1.27-.02-1.93-.02-1.22-.13-2.35-.3-3.56l-.6-4.48c-.09-.69-.14-1.33-.08-2.02-.6.03-1.02.31-1.5.58l-.08,6.64-.1,3.22-.11,2.55-.09,2.05-.06,1.78c-.02.67-.2,1.3-.04,1.93l.21-1.31ZM56.49,71.93c.08-.39-.07-.71-.09-1.02l-.1-1.28-.11-1.18c-.06-.58.03-1.13-.19-1.72l-1.24,11.47c-.05.5-.16.93-.05,1.41l.37-1.62c.06-.25.2-.36.26-.64l1.16-5.42ZM48.45,83.73c.1-.59-.21-1.21-.28-1.72l-.64-4.67-.14,1.31.02,10.95,1.04-5.87ZM18.91,85.91c.16-.5-.07-.84-.11-1.22l-.5-4.88c-.06-.58-.14-1.11-.1-1.73-.36.4-.13.95-.21,1.4-.17.93-.1,1.69.09,2.59l.83,3.83Z"/>
      <path class="cls-1" d="M41.01,43.21l-1.55-1.27c-.19,2.95-2.14,6.69-4.29,8.49l-1.7,1.43c-.79.66-1.67,1.23-2.65,1.53l2.31-1.45c.7-.4,1.29-.91,1.86-1.47,2.71-2.71,4.41-6.07,4.42-10.01l.78,1.3c.42.71.83,1.43,1.43,2l.82,1.01c1.21,1.24,2.51,2.4,4.01,3.27.91.53,1.77.92,2.69,1.39-.49.02-.87-.25-1.28-.45-1.4-.67-2.61-1.62-3.84-2.59l-2.22-2.16-.78-1.01Z"/>
      <path class="cls-1" d="M47.2,43.46c-.86-.16-1.47-.76-2.19-1.05-.61-.25-1.1-.35-1.57-.83-.38-.38-.85-.78-.69-1.44.03-.11.28-.25.28-.46-1.07-.04-2.2-.72-2.12-1.4,1.29-.4,2.61-.25,3.59.63.46-.12-.03.39.1.7.05.11.2.26.37.27.62.04,1.08.38,1.64.57,1.08.38,2.05.96,2.7,1.93.23.34.12.7-.24.94-.51.34-1.18.25-1.85.13ZM42.66,39.52c.4-.46.76-.65,1.34-.8-.95-.49-2.16-.78-3.05-.22.42.61,1.02.9,1.71,1.02ZM44.81,42.13c.03-.88.44-1.74.06-2.05-.33-.27-.45-.49-.43-.9-.38-.49-1.23-.2-1.7.38,1,.01-.42.55.3,1.49.45.58,1.1.92,1.77,1.08ZM49.28,42.72c-.32-.8-.96-1.39-1.75-1.69l-.94-.35c-.52-.19-.89-.55-1.56-.67.13.29.21.53.14.83l-.29,1.43c.62-.03,1.07.2,1.37.71,1.2.45,2.66.78,3.02-.27Z"/>
    </g>
  </g>
</svg>