<?xml version="1.0" encoding="UTF-8"?>
<svg id="Ebene_2" data-name="Ebene 2" xmlns="http://www.w3.org/2000/svg" viewBox="0 0 107.92 54.24">
  <defs>
    <style>
      .cls-1 {
        fill: #fff;
        stroke: #fff;
        stroke-linecap: round;
        stroke-linejoin: round;
        stroke-width: .5px;
      }
    </style>
  </defs>
  <g id="Ebene_1-2" data-name="Ebene 1">
    <path class="cls-1" d="M45.36,51.24l-2.91.89-1.94.83-1.1.6-1.82.43c-.57-.14-1.1-.16-1.72-.09l-9.51-1.59c-.58-.1-1.24-.37-1.7-.68-.79-.52-1.23-1.42-1.72-2.17l.22-1.91c-.05-.71-.28-1.41-.17-2.13l.27-1.86-2.46.39c-1.53.24-3.01.46-4.54.61-.52.05-.97-.02-1.5-.02h-2.34l-2.26.31h-2.35s-2.01-.27-2.01-.27c-.92-.13-1.75-.43-2.62-.72-.78-.72-1.41-1.49-2.06-2.32-.67-.84-.77-.73-.6-2.18l.63-5.24c.14-1.15.37-2.24.63-3.35.05-.23-.3-.36-.39-.47l-.77-.96c-.25-.31-.4-.97-.35-1.42l.57-5.11.5-2.84c.15-.85.38-1.7.74-2.48.27-.59.81-1.06,1.19-1.55.43-.56,1.04-.85,1.61-1.18.43-.25.79-.35,1.3-.39l2.88-.24,6.86-.37,2.07.25c.3-.96.34-2,.83-2.82.4-.67.71-1.51,1.2-2.1.84-.81,3.79-2.73,4.39-2.8l3.06-.37,1.33.19c1.46-.94,2.83-1.95,4.36-2.75l1.12-.43,5.74-1.47c.91-.23,5.76-.81,6.19-.75.03,0,.24-.05.54-.08.38-.04.62-.02.71,0,.16.02.29.04.37.06l3.25-.11,4.3-.1,1.14-.09c1.14-.09,2.21-.16,3.35-.02.87.1,1.72.12,2.59.36,2.21.59,4.38,1.07,6.65,1.48,1.05.19,1.99.54,3.07.52,1.65,1.01,3.13,2.11,4.42,3.59l2.2-.55c.97-.1,1.88-.1,2.83.09l3.22.66,2.58,1.51c.66.82,1.35,1.58,1.85,2.5l.91,3.32,2.16-.04c1.82-.03,3.56.27,5.34.54l1.56.14,1.64.81c.53.26.93.64,1.37,1.03l1.51.96c.39.43.89.89,1.14,1.43.77,1.66,1.37,3.35,1.8,5.13l.97,5.56-.74.81-2.86.84c-.45.13-.8.29-1.2.53-.25.16-.6.2-.83.47l.35,1.85.99,5.72-.61,1.03-1.8,2.39c-.33.44-.95.86-1.42,1.13l-2.91.63-2.92.35-2.53-.24-9.15-1.3-1.47-.17-1.51-.09.85,4.53c-.43.98-1.03,1.77-1.74,2.56l-1.71,1.45c-2.9.73-5.78,1.35-8.74,1.84l-1.45.1c-.52.03-.96.11-1.49.03-1.59-.23-3.18-.35-4.73-.85-.44-.14-.95-.47-1.34-.73-.72-.49-1.3-1.11-1.91-1.72l-2.98-2.95c-1.06-1.05-2.47-1.43-3.73-.51-.41.3-.89.64-1.14,1.03-.02.03.12.18.09.2-.09.04-.25-.08-.52.18l-1.65,1.6c-.44.43-.93.89-1.53,1.17ZM46.8,50.03l2.97-2.9c.78-.76,2.01-1.03,2.97-.47.53.3,1.01.71,1.44,1.13l1.16,1.14,1.96,1.96c.35.35.71.8,1.16,1.04l1.67.87c1.33.46,4.85,1.02,6.01.82l1.19-.05c2.98-.43,5.86-1.12,8.79-1.79.35-.08.46-.14.73-.34,1.02-.77,1.91-1.67,2.54-2.81.12-.21.14-.44.39-.62l-1.71-8.33-.84-2.41-1.31-1.83c-.36-.5-.52-.45-.51-.6,0-.09.17-.04.22.02l.82,1c.08.09.12.07.17,0,.15-.24-.49-1.26-.75-1.81-.21-.44-.31-.92-.67-1.25.13-.01.21.03.23.07l.97,1.91c.24.47.47.96.55,1.49.05.38.34.58.46.9l.83,2.32.87,3.78c.71-.16,1.26-.1,1.9,0l9.59,1.37,3.04.31c1.1.11,2.26-.15,3.36-.39l2.67-.6c.42-.21.98-.61,1.26-.98l1.73-2.3.58-.94-.55-3.14-1.04-5.38-.73-2.24-.78-1.22c-.23-.35-.54-.54-.83-.79-.57-.49-1.14-.84-1.86-1.06l-3.18-.98-2-.87-3.45-.78-1.44-.27c-.59-.11-1.13-.19-1.69-.44-.1.08-.17,0-.16-.07,0-.03.01-.12.09-.1l3.17.71c1.29.29,2.63.41,3.85.92,1.15.47,2.2.96,3.41,1.28.91.24,1.79.52,2.63,1.01,1.06.61,1.96,1.66,2.46,2.79l.9,2.75,1.43-.8,3.43-1.07c.25-.1.42-.38.63-.58l-1-5.73-.79-2.59-.94-2.31c-.23-.57-.77-1.11-1.21-1.53-.49-.47-1.17-.69-1.74-1.04-.17-.11-.26-.06-.32-.35-.17-.17-.51-.42-.76-.54l-1.43-.71c-.36-.18-.72.09-1.03.03l-1.65-.32-3.12-.37h-1.54s-1.42.07-1.42.07h-2.11c-1.64,0-3.23-.2-4.82-.62l-1.42-.2c.25.82.71,1.48,1.21,2.17.05.07.02.13-.04.16-.06.03-.07-.05-.11-.09-.66-.8-.97-1.69-1.43-2.6l-.99-1.96-1.01-1.57-1.32-1.45-2.08-1.58c-1.13-1.12-2.26-2.2-3.67-3-.51-.48-1.18-.65-1.9-.52l-4.65-.97-2.17-.51c-.22-.05-.38-.16-.64-.22l-1.32-.31-3.64-.32-3.23.2-8.73.21-1.41.1c-1.74.13-3.44.27-5.13.71l-5.53,1.46-1.96.93c-1.17.56-2.23,1.29-3.27,2.06-1.1.81-1.34.59-2.21,2.37-.34.69-.6,1.33-.98,1.99-.48.84-.61,1.43-.94,2.12l-1.52,3.23c-.28-.46.11-.81.46-1.2-.6-.16-1.18.06-1.78.04l-1.85-.06-.78-.12-2.86-.46c-.61-.1-1.14-.07-1.75-.03l-4.48.27c-1.54.09-4.51.13-5.42.62-.63.34-1.24.66-1.71,1.26-.35.45-.89.9-1.12,1.44-.75,1.82-1.21,4.83-1.42,6.92l-.38,3.72c-.02.24.12.72.19.94l1.16,1.48.27-.78c.33-.62.55-1.36,1.02-1.9.73-.84,3.03-2.5,3.89-2.76l1.68-.51,2.29-.4c1.17-.32,2.29-.6,3.49-.82l1.25-.48.63-.51s-.01.14-.04.19l-.47.45c-.7.4-1.49.62-2.34.63-1.94.87-5.25.94-6.52,1.67l-1.46.83c-1.67.96-2.43,1.62-3.14,3.44-.32.83-.52,1.73-.66,2.61l-.4,2.48-.65,4.98c-.03.25.07.52-.06.77.78,1.22,1.66,2.43,2.8,3.32l1.8.45,2.4.37h2.72s2.41-.31,2.41-.31c.58-.08,1.18-.06,1.76.02,1.62.23,4.68-.27,6.54-.61.77-.14,1.51-.22,2.29-.24.45-2.8.87-5.46,1.73-8.09.31-.96.83-1.95,1.67-2.58-.04.33-.48.4-.62.69l-.85,1.82-.62,2.26c-.7,2.53-1,5.09-1.39,7.69-.09.58-.23,1.11.05,1.76l.59-3.58c.3-1.82.7-3.57,1.43-5.31.16.48-.23.82-.33,1.24l-.54,2.13c-.53,2.51-.85,5.01-1.22,7.54-.07.46.02.63.29,1.01l.79,1.09c.19.27.34.33.66.43l1.84.63,8.29,1.36,1.25.1c.79.06,1.47.08,2.23-.08.65-.13,1.14-.4,1.74-.66l2.17-.97,3.06-.92c.49-.15.94-.65,1.35-1.04ZM86.54,13.73l3.46.13c-.26-1.19-.54-2.33-.99-3.49l-1.56-2.21-2.61-1.43-2.97-.68c-1.05-.24-2.12-.22-3.18-.17l-1.81.53,1.91,1.51.91.99c.89.97,1.42,2.15,2.02,3.32.17.34.29.66.69.81l4.14.68ZM18.59,14.12c1.83.4,3.63.43,5.45.17l1.57-3.45c.25-.55.6-1.02.79-1.61.38-.86.78-1.68,1.39-2.42.17-.2.59-.24.59-.58l-1.1-.17c-.82.12-1.57.2-2.4.22-.54.01-1.07.35-1.46.67-.34.29-.76.41-1.15.66l-1.98,1.28c-.35.23-.3.61-.49.92l-.89,1.45-.7,2.48c-.03.12-.02.3.04.36.04.04.2,0,.33.04Z"/>
  </g>
</svg>