<?xml version="1.0" encoding="UTF-8"?>
<svg id="Ebene_2" data-name="Ebene 2" xmlns="http://www.w3.org/2000/svg" viewBox="0 0 91.19 73.31">
  <defs>
    <style>
      .cls-1 {
        fill: #fff;
        stroke: #fff;
        stroke-miterlimit: 10;
        stroke-width: .5px;
      }
    </style>
  </defs>
  <g id="Ebene_1-2" data-name="Ebene 1">
    <path class="cls-1" d="M2.86,29.35c.47-.5,2.86-1.49,4.05-1.91l24.38-8.52c12.1-4.23,24.15-8.44,36.09-13.05l9.69-3.74c2.28-.88,5.8-2.32,7.81-1.78,1.52.4,2.47,1.69,3.02,3.07.88,2.19,1.52,4.3,2.09,6.58.43,1.73.66,3.43.91,5.18.08.57.02,1.08-.06,1.67-.4,2.8-2.96,4.27-5.46,5.41l-1.7.78c-7.28,3-14.58,5.77-22.02,8.43l-9.61,3.44c-1.67.6-3.12,1.35-4.64,2.18-1.37.75-2.49,1.62-2.96,3.2-.42,1.4-.54,2.87-.51,4.36l.07,2.99c.04,1.53.31,2.94.86,4.39l3.66,9.83.68,2.5c0,.65-.11,1.72-.81,2.67-.37.51-.82.86-2.31,1.66-.87.47-2.04,1.06-3.47,1.69l-4.35,1.51c-1.66.57-3.28.9-5.02,1.1-3.71.44-4.2-2.04-5.44-4.89l-3.29-7.55c-1.21-2.79-2.64-5.38-4.24-7.95-1.56-2.5-4.01-4.68-7.01-4.73l-5.22-.09c-2.04-.03-3.42-1.13-4.53-2.71-1.04-1.48-1.73-2.97-2.28-4.69-.67-2.08-1.06-4.01-.99-6.23.03-1.1.32-2.77,1.62-4.06.36-.36.72-.6.98-.75ZM2.87,29.55c-1.73,1.04-2.61,2.88-2.47,4.87l.11,1.57c0,1.57.47,2.9.94,4.34.36,1.12.64,2.2,1.34,3.2.9,1.29,1.4,2.99,3.14,3.55.54.17,1.11.48,1.7.49l5.04.07c2.5.03,4.59.95,6.2,2.88.92,1.11,1.8,2.16,2.52,3.45,1.25,2.25,2.43,4.4,3.48,6.77,1.22,2.78,2.46,5.44,3.53,8.27l.82,1.75c.68,1.45,1.96,2.29,3.56,2.09l1.63-.2c1.14-.14,2.18-.39,3.27-.75l4.4-1.48c1.93-.65,3.71-1.64,5.4-2.73,2.13-1.39,1.75-3.57.91-5.81l-3.89-10.39c-.52-1.4-.69-2.84-.69-4.31v-4.04c0-1.16.24-2.29.67-3.34.52-1.27,1.52-2.05,2.67-2.71l1.93-1.11c1.32-.76,2.73-1.15,4.2-1.68,8.98-3.2,17.87-6.4,26.72-9.95l5.59-2.37c1.45-.62,2.82-1.41,3.88-2.56,1-1.08,1.39-2.54,1.25-4.03-.32-3.35-1.07-6.58-2.19-9.73-.64-1.82-1.38-4.24-3.03-4.93-1.01-.43-2.08-.4-3.14-.12-1.74.46-3.34,1.02-5.05,1.69-9.48,3.72-18.95,7.27-28.57,10.68l-17.56,6.23-22.41,7.82c-1.81.63-3.47,1.24-5.18,2.05-.23.11-.44.36-.67.36-.02,0-.09.06-.06.14Z"/>
  </g>
</svg>